<?xml version="1.0" encoding="UTF-8"?>
<svg version="1.1" xmlns="http://www.w3.org/2000/svg" width="900" height="600">
<path d="M0 0 C297 0 594 0 900 0 C900 198 900 396 900 600 C603 600 306 600 0 600 C0 402 0 204 0 0 Z " fill="#F2FAF2" transform="translate(0,0)"/>
<path d="M0 0 C133.98 0 267.96 0 406 0 C406.99 2.64 407.98 5.28 409 8 C413.03418918 12.63931755 415.88223911 14.77644782 422 16 C422 46.69 422 77.38 422 109 C377.78 109 333.56 109 288 109 C288.47431104 143.01628978 288.47431104 143.01628978 289.08105469 177.03027344 C289.13525391 183.64111328 289.13525391 183.64111328 289.14532471 186.7456665 C289.16363433 188.89294357 289.205599 191.0401047 289.26690674 193.18658447 C289.80975853 213.21093446 289.80975853 213.21093446 283.81694412 219.65076065 C282.25330986 221.08350341 280.65708 222.39275361 278.96832275 223.67437744 C274.34386272 227.29755102 271.80672139 231.92224866 269 237 C268.54109375 237.77472656 268.0821875 238.54945313 267.609375 239.34765625 C258.93559232 254.99704126 257.63227722 274.66079221 261.1171875 292.01171875 C264.68710358 304.09572673 270.38204268 317.76723588 280.54423141 325.49698257 C285.28947151 329.36843778 288.1732998 332.9547437 289.05773926 339.12805176 C289.54345136 345.46637354 289.35317812 351.79291993 289.171875 358.140625 C289.15420116 360.2133395 289.14197775 362.28610777 289.13525391 364.35888672 C289.07268927 371.9900819 288.9051513 379.62012567 288.75 387.25 C288.5025 404.3275 288.255 421.405 288 439 C332.22 439 376.44 439 422 439 C422 469.69 422 500.38 422 532 C419.69 532.66 417.38 533.32 415 534 C408.56499824 538.08375112 408.67874556 539.96376332 406 548 C272.02 548 138.04 548 0 548 C0 482.66 0 417.32 0 350 C4.95 349.34 9.9 348.68 15 348 C34.14438554 342.57684642 51.03569483 331.94268709 62 315 C72.30140064 296.28961189 76.71948652 275.55218144 71.4375 254.4375 C67.93760478 242.51329559 62.36080452 232.24853473 54 223 C53.06027344 221.93845703 53.06027344 221.93845703 52.1015625 220.85546875 C44.2805522 212.50773734 34.50278785 207.27365692 24 203 C23.28585937 202.70222656 22.57171875 202.40445313 21.8359375 202.09765625 C14.54181625 199.35211623 8.12143481 199.08285797 0 198 C0 132.66 0 67.32 0 0 Z " fill="#00A000" transform="translate(452,26)"/>
<path d="M0 0 C133.98 0 267.96 0 406 0 C406 65.34 406 130.68 406 198 C399.73 198.99 393.46 199.98 387 201 C367.86045064 207.15199801 351.50495473 219.66584083 341.4140625 237.23046875 C335.25104555 249.30112903 332.64246223 260.9712055 332.6875 274.4375 C332.67138672 275.39720703 332.65527344 276.35691406 332.63867188 277.34570312 C332.62536398 297.10792983 342.45281291 315.17155643 356 329 C356.58007812 329.61617188 357.16015625 330.23234375 357.7578125 330.8671875 C370.69358648 343.45491375 388.61103821 348.26110382 406 350 C406 415.34 406 480.68 406 548 C272.02 548 138.04 548 0 548 C-0.66 545.69 -1.32 543.38 -2 541 C-5.51916266 535.46988725 -9.76273902 533.55931525 -16 532 C-16 501.31 -16 470.62 -16 439 C28.22 439 72.44 439 118 439 C117.52568896 404.98371022 117.52568896 404.98371022 116.91894531 370.96972656 C116.86474609 364.35888672 116.86474609 364.35888672 116.85467529 361.2543335 C116.83636567 359.10705643 116.794401 356.9598953 116.73309326 354.81341553 C116.19024699 334.78926921 116.19024699 334.78926921 122.18305588 328.34618759 C123.74674997 326.9125773 125.34272317 325.60194186 127.03167725 324.31951904 C137.11498639 316.44017791 143.66287859 299.79881991 145.55859375 287.32421875 C148.03615347 265.66190399 144.72490675 245.26984956 131.125 227.6875 C129.09696769 225.22550998 127.30652971 223.20797597 124.65931702 221.41188049 C121.02866484 218.77692604 118.49052731 216.23456448 117.50049973 211.72455978 C116.70025441 204.55862156 116.96805061 197.34773044 117.12109375 190.15234375 C117.13434052 188.07656016 117.14351338 186.00074648 117.14855957 183.92492676 C117.19558185 176.26199016 117.3212346 168.59969882 117.4375 160.9375 C117.623125 143.798125 117.80875 126.65875 118 109 C73.78 109 29.56 109 -16 109 C-16 78.31 -16 47.62 -16 16 C-13.36 15.01 -10.72 14.02 -8 13 C-2.84702699 8.9921321 -2.50905446 6.6908119 0 0 Z " fill="#00A000" transform="translate(42,26)"/>
<path d="M0 0 C297 0 594 0 900 0 C900 198 900 396 900 600 C603 600 306 600 0 600 C0 402 0 204 0 0 Z M22 22 C22 205.48 22 388.96 22 578 C304.48 578 586.96 578 878 578 C878 394.52 878 211.04 878 22 C595.52 22 313.04 22 22 22 Z " fill="#00A000" transform="translate(0,0)"/>
<path d="M0 0 C42.9 0 85.8 0 130 0 C130 28.38 130 56.76 130 86 C115.15 86 100.3 86 85 86 C85 136.16 85 186.32 85 238 C99.85 238 114.7 238 130 238 C130 266.38 130 294.76 130 324 C87.1 324 44.2 324 0 324 C0 217.08 0 110.16 0 0 Z " fill="#01A001" transform="translate(744,138)"/>
<path d="M0 0 C42.9 0 85.8 0 130 0 C130 106.92 130 213.84 130 324 C87.1 324 44.2 324 0 324 C0 295.62 0 267.24 0 238 C14.85 238 29.7 238 45 238 C45 187.84 45 137.68 45 86 C30.15 86 15.3 86 0 86 C0 57.62 0 29.24 0 0 Z " fill="#01A001" transform="translate(26,138)"/>
<path d="M0 0 C0.06947395 8.5534877 0.12279776 17.10685775 0.15543652 25.66055775 C0.17110056 29.63228627 0.19235199 33.60382193 0.22631836 37.57543945 C0.25888596 41.40743089 0.27684745 45.23923668 0.28463173 49.07135582 C0.29017996 50.53422659 0.30101425 51.99708707 0.31719017 53.45987892 C0.33893079 55.50708696 0.34196847 57.5535254 0.34057617 59.60083008 C0.35056892 61.34956169 0.35056892 61.34956169 0.36076355 63.13362122 C-0.04740745 66.37666699 -0.67139218 66.90042366 -3 69 C-2.80862516 74.04565002 -2.80862516 74.04565002 0 78 C0.24050903 80.74612427 0.24050903 80.74612427 0.22705078 84.28564453 C0.22734283 84.92967224 0.22763489 85.57369995 0.22793579 86.23724365 C0.22654074 88.36923627 0.21097174 90.50088082 0.1953125 92.6328125 C0.19158298 94.10968841 0.18873572 95.58656678 0.18673706 97.06344604 C0.17909574 100.95317398 0.15944308 104.84275288 0.1373291 108.73242188 C0.11688135 112.70050032 0.10773764 116.66860282 0.09765625 120.63671875 C0.07619756 128.42454716 0.04205572 136.21225271 0 144 C-2.2074755 143.87478804 -4.41441533 143.74011374 -6.62109375 143.6015625 C-7.85013428 143.52760254 -9.0791748 143.45364258 -10.34545898 143.37744141 C-27.17198841 141.63959556 -43.33184731 131.02498833 -54.1875 118.4375 C-67.28692732 101.18722535 -71.49971786 81.99661434 -69.7265625 60.71875 C-67.15564204 42.28573538 -56.55039801 25.29916559 -41.93359375 14.01953125 C-29.12272039 5.20032815 -15.74703187 -0.10981194 0 0 Z " fill="#00A000" transform="translate(448,228)"/>
<path d="M0 0 C2.24105259 0.13712566 4.4817049 0.28080369 6.72216797 0.42724609 C8.59387161 0.54620743 8.59387161 0.54620743 10.50338745 0.66757202 C27.09639648 2.24509323 43.42745252 13.10389297 54 25.5 C67.20419368 42.61075985 71.66566484 61.55871072 69.7265625 83.02734375 C66.83758927 101.58763406 56.78500071 118.52475863 42.0078125 129.98046875 C31.36230379 137.12816746 19.5813925 142.7377848 6.7265625 143.56640625 C5.46666504 143.64963135 4.20676758 143.73285645 2.90869141 143.81860352 C1.94882324 143.87846436 0.98895508 143.9383252 0 144 C-0.06947174 135.3161375 -0.1227967 126.63237046 -0.15543652 117.94829082 C-0.17110102 113.91602967 -0.1923533 109.88395847 -0.22631836 105.85180664 C-0.25888429 101.9614608 -0.27684711 98.0712978 -0.28463173 94.18082619 C-0.29018026 92.69562717 -0.30101511 91.2104383 -0.31719017 89.725317 C-0.33892851 87.64697928 -0.34196856 85.56939968 -0.34057617 83.4909668 C-0.34723801 82.30738083 -0.35389984 81.12379486 -0.36076355 79.90434265 C0.04055208 76.67353372 0.58119552 76.01369251 3 74 C3.5 71.5 3.5 71.5 3 69 C2.50429001 68.58542038 2.00858002 68.17084076 1.49784851 67.74369812 C-0.75069529 65.12608921 -0.36003562 63.00623428 -0.34057617 59.60083008 C-0.34123329 58.63456947 -0.34123329 58.63456947 -0.34190369 57.64878845 C-0.33981559 55.52205979 -0.31648513 53.39612198 -0.29296875 51.26953125 C-0.28737283 49.79408702 -0.28310271 48.31863722 -0.28010559 46.84318542 C-0.26865637 42.96160466 -0.23918887 39.08036117 -0.20599365 35.19891357 C-0.17529424 31.23747317 -0.16160055 27.27597822 -0.14648438 23.31445312 C-0.11431894 15.54281506 -0.06312205 7.77145481 0 0 Z " fill="#00A000" transform="translate(452,228)"/>
<path d="M0 0 C13.53 0 27.06 0 41 0 C41 47.52 41 95.04 41 144 C27.47 144 13.94 144 0 144 C0 96.48 0 48.96 0 0 Z " fill="#02A102" transform="translate(833,228)"/>
<path d="M0 0 C13.53 0 27.06 0 41 0 C41 47.52 41 95.04 41 144 C27.47 144 13.94 144 0 144 C0 96.48 0 48.96 0 0 Z " fill="#03A103" transform="translate(26,228)"/>
<path d="M0 0 C11.53828182 6.92296909 19.3046952 21.17937334 22.9375 34 C28.16565416 55.60508741 24.45672889 76.16606396 12.97265625 95.12109375 C9.7709559 99.79367427 6.1724668 104.15895113 2 108 C1.34 108 0.68 108 0 108 C0 72.36 0 36.72 0 0 Z " fill="#03A103" transform="translate(160,246)"/>
<path d="M0 0 C0 35.64 0 71.28 0 108 C-12.75573426 99.49617716 -20.35245019 84.74764745 -24 70 C-27.85999873 47.48783958 -22.83858057 27.30229657 -9.8125 8.75 C-3.35869565 0 -3.35869565 0 0 0 Z " fill="#03A103" transform="translate(740,246)"/>
<path d="M0 0 C1.875 1.125 1.875 1.125 3 3 C3.39365568 6.14924548 3.52854531 8.11909116 1.875 10.875 C-0.91106042 12.54663625 -2.81988862 12.46376624 -6 12 C-8.35210784 9.88310295 -8.91810953 8.55958485 -9.375 5.4375 C-9 3 -9 3 -7.875 1.1875 C-5.12844028 -0.55198782 -3.18153026 -0.39769128 0 0 Z " fill="#F3FAF3" transform="translate(116,294)"/>
<path d="M0 0 C0.66 0.66 1.32 1.32 2 2 C1.8125 5.5 1.8125 5.5 1 9 C-2.23253796 11.15502531 -3.25150923 11.46856135 -7 11 C-8.8125 9.875 -8.8125 9.875 -10 8 C-10.39310741 4.85514075 -10.47555213 2.86718329 -8.9375 0.0625 C-5.81651045 -1.6490104 -3.35466116 -0.79291991 0 0 Z " fill="#F5FBF5" transform="translate(791,295)"/>
<path d="M0 0 C0 3.96 0 7.92 0 12 C-3.96 12 -7.92 12 -12 12 C-11.92500423 8.85017752 -11.59766298 6.69832201 -9.515625 4.265625 C-4.7625 0 -4.7625 0 0 0 Z " fill="#18A918" transform="translate(874,562)"/>
<path d="M0 0 C3.14982248 0.07499577 5.30167799 0.40233702 7.734375 2.484375 C12 7.2375 12 7.2375 12 12 C8.04 12 4.08 12 0 12 C0 8.04 0 4.08 0 0 Z " fill="#17A817" transform="translate(26,562)"/>
<path d="M0 0 C3.96 0 7.92 0 12 0 C12 3.96 12 7.92 12 12 C8.15891922 11.73201762 6.263979 11.205317 3.1875 8.8125 C0.794683 5.736021 0.26798238 3.84108078 0 0 Z " fill="#17A817" transform="translate(862,26)"/>
<path d="M0 0 C3.96 0 7.92 0 12 0 C11.73201762 3.84108078 11.205317 5.736021 8.8125 8.8125 C5.736021 11.205317 3.84108078 11.73201762 0 12 C0 8.04 0 4.08 0 0 Z " fill="#16A816" transform="translate(26,26)"/>
</svg>
